<svg version="1.1" id="Layer_1" xmlns="http://www.w3.org/2000/svg" xmlns:xlink="http://www.w3.org/1999/xlink" x="0px" y="0px"
	 width="100%" viewBox="0 0 1061 872" enable-background="new 0 0 1061 872" xml:space="preserve">
<path fill="#FFFFFF" opacity="1.000000" stroke="none" 
	d="
M607.000000,873.000000 
	C404.692749,873.000000 202.885498,873.000000 1.039122,873.000000 
	C1.039122,582.396973 1.039122,291.793945 1.039122,1.095464 
	C354.557312,1.095464 708.114624,1.095464 1061.835938,1.095464 
	C1061.835938,291.666595 1061.835938,582.333313 1061.835938,873.000000 
	C910.460510,873.000000 758.980286,873.000000 607.000000,873.000000 
M528.919189,737.475586 
	C528.622925,737.325928 528.326721,737.176270 527.696411,736.442261 
	C522.695129,729.980103 516.138977,725.014526 508.633820,722.741394 
	C504.013489,721.342041 499.191925,720.758362 495.064026,717.125549 
	C494.921509,706.443115 494.958801,706.241333 505.341370,704.628723 
	C510.720917,703.793213 516.186279,703.503967 521.615295,702.994690 
	C527.174133,702.473145 531.029907,698.965698 532.108276,693.403015 
	C533.101685,688.278564 531.072266,684.422058 525.579163,681.317444 
	C523.649536,680.236816 521.782898,678.390869 519.777893,678.225891 
	C514.725708,677.809937 509.598206,678.400208 504.524292,678.136780 
	C494.684204,677.626038 484.982056,678.457275 475.610229,681.367554 
	C473.350159,682.069397 470.660309,684.638062 470.080322,686.849731 
	C468.705566,692.092041 468.334991,697.621887 467.829407,703.060669 
	C467.383606,707.856934 467.370056,712.691650 467.048859,717.501587 
	C466.552429,724.936096 465.359711,732.389771 465.679626,739.782654 
	C465.818665,742.996521 468.980011,746.079590 471.141846,749.792664 
	C474.092834,755.679504 482.289551,755.483459 486.659485,751.715698 
	C492.605103,746.589294 499.343140,744.656921 507.634735,747.294312 
	C509.450775,750.702637 512.444458,753.974426 512.858215,757.545227 
	C514.018799,767.562439 511.072906,771.044678 501.672241,775.415649 
	C493.468292,779.230225 485.713806,778.812439 477.418976,775.730103 
	C473.713837,774.353271 469.165314,774.180298 465.244019,774.863770 
	C463.008392,775.253296 460.193024,778.152161 459.507324,780.473145 
	C457.667297,786.701416 460.236542,791.377625 466.282135,795.431458 
	C466.444946,795.755371 466.707184,795.904114 467.023926,795.978882 
	C467.023926,795.978882 467.109406,795.908508 467.283173,796.574402 
	C470.997986,798.643311 474.489166,801.691284 478.468903,802.600281 
	C491.136719,805.493774 503.666473,804.718079 516.006348,799.935364 
	C534.248901,792.864929 545.100464,771.719116 539.053772,753.180725 
	C537.326782,747.886047 535.791443,741.960754 529.947693,739.058289 
	C529.947693,739.058289 529.861938,739.060913 529.799500,738.558716 
	C529.543579,738.351990 529.287720,738.145264 528.999756,737.993835 
	C528.999756,737.993835 529.060120,737.972595 528.919189,737.475586 
M604.832947,748.538330 
	C604.556824,748.355652 604.280701,748.172974 603.858643,747.394958 
	C603.599548,746.621155 603.340393,745.847351 603.468262,744.645813 
	C602.858826,743.429565 602.249390,742.213257 601.755676,740.317566 
	C601.794617,739.859985 601.833557,739.402344 602.451538,738.682739 
	C602.962585,737.786804 603.473633,736.890869 604.641418,735.853088 
	C610.702698,727.706848 617.100769,719.783752 622.701416,711.332214 
	C626.161316,706.111084 624.046875,701.294067 618.013428,697.958923 
	C618.013428,697.958923 618.089966,697.970520 617.994690,697.415283 
	C617.701538,697.193359 617.408386,696.971375 616.710693,696.209412 
	C616.114319,695.638367 615.545044,695.035339 614.917297,694.501160 
	C609.473999,689.869873 600.997437,690.404785 598.130371,695.519470 
	C594.773560,701.507690 591.375305,707.472717 587.116699,713.246765 
	C584.632690,713.466431 583.488586,712.431030 583.630005,709.843750 
	C583.818420,706.395081 584.049377,702.924988 583.865417,699.485352 
	C583.601624,694.552368 582.319702,690.046326 576.519287,687.615906 
	C575.647156,686.853333 574.861572,685.950256 573.888977,685.350769 
	C566.859741,681.018799 558.859802,681.788818 557.109497,690.412720 
	C556.783264,692.020142 556.896790,693.718689 556.827087,695.376038 
	C556.123962,712.094971 555.710266,728.832947 554.612061,745.525757 
	C554.005737,754.741455 552.114624,763.865845 551.062073,773.061096 
	C550.252502,780.133606 550.007324,787.191345 558.288452,791.610657 
	C564.408875,797.677673 568.597656,798.606934 573.725464,793.882751 
	C575.910400,791.869873 577.323364,788.289551 577.739502,785.237793 
	C578.612610,778.835510 578.320923,772.281250 579.037598,765.848389 
	C579.503479,761.666626 580.904541,757.589111 582.415527,753.998352 
	C584.195679,756.365356 586.598083,758.497070 587.603577,761.156921 
	C588.955627,764.733887 588.916748,768.814636 590.050354,772.502136 
	C591.309204,776.597107 592.036377,781.281006 597.192017,783.694946 
	C598.736877,784.853577 600.164612,786.755005 601.850342,787.020691 
	C605.716309,787.630188 610.164001,788.591858 613.522766,787.259888 
	C617.004761,785.879150 618.344604,781.567688 617.209778,777.348877 
	C615.409424,770.656067 613.949585,763.842590 611.639221,757.330872 
	C610.762512,754.859924 607.929871,753.082825 605.993652,751.005493 
	C605.993652,751.005493 606.007080,751.015686 606.019348,750.398987 
	C605.671204,749.935547 605.323059,749.472168 604.995972,749.002441 
	C604.995972,749.002441 604.988708,749.022888 604.832947,748.538330 
M117.451599,657.006287 
	C128.637848,653.238037 136.233398,645.566895 140.860031,634.400757 
	C154.294479,640.256714 168.142410,638.983826 181.674042,640.071045 
	C187.641556,640.550537 190.182632,638.152710 191.655914,632.515869 
	C193.419388,625.768799 194.839737,618.892517 197.157944,612.337158 
	C204.341080,592.024841 215.356323,574.240173 232.705750,560.911194 
	C233.814072,560.059692 235.216263,559.590698 236.490601,558.939270 
	C229.203781,570.730408 220.983917,581.514038 215.474869,593.539490 
	C207.341690,611.293091 202.319672,629.972412 203.770050,650.157715 
	C204.893356,665.790771 208.432022,680.603638 215.551270,694.250549 
	C223.657394,709.789185 234.559204,723.380310 249.387299,733.329956 
	C286.371552,758.146423 324.513947,759.282959 362.604858,736.948730 
	C409.625183,709.378784 428.612885,646.289062 405.267181,597.071228 
	C397.042694,579.732178 386.696259,563.626465 370.499359,552.041199 
	C372.980774,552.607117 375.266846,553.460571 377.098663,554.894348 
	C392.837250,567.213135 408.494568,579.745178 416.834015,598.659424 
	C421.115021,608.368896 425.034393,618.339355 427.916748,628.531372 
	C430.170593,636.500916 433.612030,641.956726 441.829559,644.862427 
	C460.039520,651.301331 478.984955,654.080078 497.950348,655.604187 
	C524.309814,657.722351 550.773315,659.340088 577.286743,656.960876 
	C592.214050,655.621277 607.154968,654.561707 621.433411,649.644104 
	C627.854370,647.432617 634.648193,645.156311 636.605103,637.393250 
	C640.334961,622.596985 646.029175,608.607727 653.892883,595.565186 
	C657.421509,589.712646 661.653564,584.284302 665.566467,578.663513 
	C665.997620,578.919312 666.428772,579.175049 666.859924,579.430847 
	C666.749756,580.015930 666.801331,580.703430 666.505493,581.171021 
	C661.028015,589.827576 656.833130,598.926941 655.354004,609.230835 
	C653.812744,619.966492 651.205811,630.578430 650.198730,641.350464 
	C649.612183,647.623352 651.134521,654.118652 651.924072,660.487122 
	C652.590088,665.859741 652.950439,671.384583 654.534058,676.505554 
	C657.963379,687.595093 663.239380,697.818970 669.928040,707.423096 
	C688.164124,733.608459 712.835693,748.890320 744.616333,752.203247 
	C776.919373,755.570557 804.899536,745.472412 827.992004,723.023865 
	C860.596802,691.328308 870.792236,644.082092 852.918579,600.578064 
	C848.687256,590.279053 842.500183,580.783569 837.133301,570.770142 
	C838.079163,571.297424 839.459412,571.747986 840.415466,572.648804 
	C850.956543,582.579651 859.622253,594.079651 865.288391,607.305115 
	C869.205933,616.449036 871.119263,626.459900 873.822021,636.113098 
	C875.588135,642.420654 877.386108,648.824646 884.715942,650.697693 
	C891.580811,652.451965 898.637085,654.869385 905.550354,654.693054 
	C916.095398,654.424072 926.585693,652.139465 937.109009,650.787476 
	C939.520325,650.477600 942.229309,649.733093 944.359619,650.468323 
	C953.227600,653.528931 961.728149,657.800720 970.734924,660.277588 
	C983.947937,663.911194 997.171753,662.490784 1009.700562,656.804688 
	C1022.723206,650.894409 1031.653198,640.496033 1037.757690,628.060242 
	C1052.343140,598.348389 1035.287964,578.797913 1008.642456,572.891479 
	C1007.396118,572.615173 1006.139771,572.159912 1005.028381,571.537476 
	C1000.199097,568.832764 1002.119934,564.248779 1002.290955,560.383972 
	C1004.093567,519.630676 1002.572510,479.167297 991.064209,439.699615 
	C984.784363,418.162964 975.616943,398.498505 954.561768,386.861755 
	C942.761902,380.340271 930.625732,375.310059 917.179443,373.723969 
	C916.027283,373.588043 914.846924,373.468994 913.750366,373.119995 
	C905.307678,370.432739 896.963806,367.393860 888.428040,365.051849 
	C880.442505,362.860779 872.916199,359.599457 866.055908,355.235535 
	C851.742676,346.130676 841.794556,333.398193 837.074036,316.911011 
	C833.100891,303.034119 829.770691,288.949341 825.231140,275.263336 
	C815.958008,247.306076 801.660583,221.879578 783.308899,198.946121 
	C768.749939,180.752319 752.064697,164.476120 733.908997,149.808792 
	C732.274719,148.488541 729.684937,148.351013 726.749756,147.411636 
	C726.749756,150.404739 726.795776,152.038895 726.742737,153.669815 
	C726.077942,174.113022 725.560913,194.563171 724.625977,214.994156 
	C724.339905,221.245407 723.107056,227.483704 721.933655,233.656799 
	C720.210022,242.724884 718.249512,251.751556 716.206726,260.754333 
	C714.025879,270.366119 712.467102,280.231384 709.137390,289.444031 
	C704.053467,303.510376 697.660950,317.102539 691.861450,330.911774 
	C683.174072,351.597321 669.884766,369.435181 655.692688,386.386902 
	C642.474243,402.175568 627.360413,416.355347 610.337646,428.193909 
	C602.130859,433.901276 593.606628,439.157440 585.153259,444.502686 
	C580.982422,447.140015 576.788940,449.813110 572.352478,451.942566 
	C565.088806,455.429138 557.664307,458.595459 550.219971,461.685699 
	C544.869873,463.906616 539.408081,465.872040 533.939087,467.788879 
	C528.500610,469.695068 522.986816,471.385834 517.515930,473.200897 
	C516.431091,473.560760 515.416504,474.138519 514.326050,474.474457 
	C509.265137,476.033478 504.199066,477.578125 499.110016,479.041656 
	C498.012848,479.357208 496.707611,479.057953 495.677063,479.479309 
	C487.659576,482.756989 479.527649,485.413300 470.696411,485.018250 
	C469.715118,484.974365 468.699249,485.129639 467.735779,485.350891 
	C459.923126,487.145081 452.186096,489.383728 444.293671,490.682800 
	C436.473877,491.969879 428.505890,492.387848 420.592926,493.071747 
	C387.113159,495.965393 353.788330,492.357422 320.429626,490.495605 
	C314.707520,490.176270 309.046112,488.757080 303.359863,487.826263 
	C302.708771,487.719696 302.082977,487.467010 301.437958,487.313843 
	C294.000153,485.548157 286.600494,483.591614 279.110291,482.085938 
	C272.386627,480.734314 265.559387,479.901855 258.788330,478.777161 
	C257.999512,478.646118 257.303009,478.034882 256.520477,477.777863 
	C251.776855,476.219757 247.065201,474.538330 242.256210,473.212463 
	C237.402145,471.874176 232.338730,471.236694 227.561935,469.690186 
	C220.201904,467.307312 213.090576,464.150085 205.716614,461.818237 
	C200.199020,460.073425 196.296463,457.077057 195.019180,451.354858 
	C193.675293,445.334259 196.065781,440.808655 200.768753,436.963226 
	C205.916016,432.754517 210.853958,428.253967 215.587326,423.580963 
	C237.210648,402.233429 254.393066,377.482361 269.304779,351.217041 
	C288.861725,316.769592 307.458160,281.777924 326.888824,247.257355 
	C343.038513,218.565750 361.769135,191.710342 385.605347,168.691727 
	C409.377960,145.734512 437.268372,130.239853 469.357025,122.520226 
	C499.432739,115.284851 529.858276,115.925797 560.166321,120.437889 
	C594.978027,125.620476 628.434631,136.069992 661.430664,148.139893 
	C666.773865,150.094437 666.954590,153.540878 666.486694,157.775131 
	C666.309631,159.376740 665.401978,160.901718 664.801819,162.451752 
	C661.879517,169.999344 659.138367,177.624084 655.980652,185.072067 
	C649.692505,199.903671 643.745728,214.922012 636.580505,229.327301 
	C630.117188,242.321503 622.862122,255.033127 614.790344,267.088745 
	C603.910217,283.338806 592.810425,299.608307 580.130249,314.437531 
	C568.562256,327.966156 555.251221,340.148193 541.787537,351.865662 
	C531.374817,360.927917 519.730286,368.637115 508.270111,376.412445 
	C500.243835,381.858032 491.719482,386.609650 483.201233,391.276367 
	C477.213501,394.556702 470.876740,397.205109 464.666229,400.071686 
	C461.727722,401.427948 458.712433,402.617035 455.744995,403.911835 
	C449.725220,406.538544 443.801178,409.414398 437.668976,411.743439 
	C433.630280,413.277405 429.232788,413.840393 425.112732,415.193695 
	C420.503052,416.707794 416.146393,419.119873 411.465149,420.262329 
	C401.306671,422.741486 390.985382,424.545715 380.785889,426.868408 
	C376.890869,427.755402 373.146912,429.305847 369.334106,430.553955 
	C369.373322,430.960754 369.412567,431.367523 369.451813,431.774323 
	C371.163361,431.851959 372.898499,432.150940 374.582703,431.971619 
	C386.149536,430.740051 397.694092,429.291473 409.267822,428.132935 
	C434.509796,425.606201 459.195740,420.108429 483.115295,412.032593 
	C502.412659,405.517365 521.447205,397.806793 539.777039,388.930603 
	C576.380737,371.205353 607.510864,346.118225 633.276611,314.590820 
	C675.635498,262.759827 696.419556,201.936096 706.890259,136.870605 
	C707.419617,133.581512 707.127380,130.664124 703.553101,128.915054 
	C698.933289,126.654327 694.471375,124.073280 689.899475,121.711456 
	C684.625305,118.986862 679.318359,116.324852 674.001404,113.684425 
	C669.505005,111.451500 665.091919,108.986160 660.429688,107.167961 
	C654.176392,104.729279 647.666016,102.957893 641.362854,100.637062 
	C634.393738,98.071030 627.667358,94.775757 620.590576,92.590599 
	C612.839539,90.197235 604.849182,88.512848 596.889893,86.876060 
	C586.591675,84.758278 576.275269,82.589531 565.866394,81.187164 
	C554.859070,79.704163 543.734619,78.301758 532.660217,78.293449 
	C516.563049,78.281380 500.463501,79.519882 484.367920,80.287491 
	C478.059601,80.588333 471.701141,80.651787 465.468964,81.545189 
	C456.013458,82.900696 446.667084,85.001198 437.235046,86.545166 
	C433.657074,87.130859 429.847290,86.548553 426.363434,87.399902 
	C421.837646,88.505852 417.599579,90.739082 413.115204,92.076363 
	C406.007996,94.195816 398.788361,95.935234 391.636475,97.908699 
	C384.249908,99.946938 376.862366,101.989235 369.526489,104.199753 
	C366.444794,105.128357 363.419312,106.332314 360.501099,107.695427 
	C355.006195,110.262154 349.690796,113.223656 344.145660,115.669418 
	C338.591339,118.119263 332.606873,119.675667 327.243805,122.458046 
	C319.348663,126.554077 311.722290,131.207367 304.188385,135.951889 
	C291.311554,144.061111 278.218781,151.906097 265.916687,160.827286 
	C253.494003,169.835907 241.253052,179.314331 230.154251,189.871399 
	C217.525925,201.883301 205.333359,214.598618 194.595688,228.297104 
	C177.254578,250.419846 160.969330,273.438721 149.880875,299.555695 
	C143.742767,314.013031 137.267822,328.404510 132.405197,343.302368 
	C128.356705,355.705963 126.252098,368.766907 123.633461,381.607452 
	C121.324265,392.930603 118.999146,404.290009 117.575439,415.744568 
	C115.674339,431.039917 113.932137,446.417175 113.375862,461.804596 
	C112.202881,494.251678 111.831215,526.727905 111.173424,559.193115 
	C111.103065,562.665649 111.652306,566.176270 111.322380,569.612427 
	C110.729919,575.782593 106.989281,577.893188 101.761269,574.802368 
	C98.898270,573.109680 96.701118,573.020386 93.935684,574.572083 
	C92.551521,575.348694 90.771942,575.809570 89.185669,575.773743 
	C79.178009,575.547607 69.650780,577.882568 60.664089,581.872742 
	C51.112518,586.113708 42.601788,591.941223 38.652557,602.367554 
	C36.846302,607.136292 34.914486,611.898560 33.637402,616.818909 
	C29.830736,631.485229 34.402740,646.424622 50.401329,653.430237 
	C60.495834,657.850525 71.104996,659.574829 81.749023,660.785461 
	C93.513130,662.123413 105.369293,661.506714 117.451599,657.006287 
z"/>
<path fill="#68B590" opacity="1.000000" stroke="none" 
	d="
M117.084290,657.145203 
	C105.369293,661.506714 93.513130,662.123413 81.749023,660.785461 
	C71.104996,659.574829 60.495834,657.850525 50.401329,653.430237 
	C34.402740,646.424622 29.830736,631.485229 33.637402,616.818909 
	C34.914486,611.898560 36.846302,607.136292 38.652557,602.367554 
	C42.601788,591.941223 51.112518,586.113708 60.664089,581.872742 
	C69.650780,577.882568 79.178009,575.547607 89.185669,575.773743 
	C90.771942,575.809570 92.551521,575.348694 93.935684,574.572083 
	C96.701118,573.020386 98.898270,573.109680 101.761269,574.802368 
	C106.989281,577.893188 110.729919,575.782593 111.322380,569.612427 
	C111.652306,566.176270 111.103065,562.665649 111.173424,559.193115 
	C111.831215,526.727905 112.202881,494.251678 113.375862,461.804596 
	C113.932137,446.417175 115.674339,431.039917 117.575439,415.744568 
	C118.999146,404.290009 121.324265,392.930603 123.633461,381.607452 
	C126.252098,368.766907 128.356705,355.705963 132.405197,343.302368 
	C137.267822,328.404510 143.742767,314.013031 149.880875,299.555695 
	C160.969330,273.438721 177.254578,250.419846 194.595688,228.297104 
	C205.333359,214.598618 217.525925,201.883301 230.154251,189.871399 
	C241.253052,179.314331 253.494003,169.835907 265.916687,160.827286 
	C278.218781,151.906097 291.311554,144.061111 304.188385,135.951889 
	C311.722290,131.207367 319.348663,126.554077 327.243805,122.458046 
	C332.606873,119.675667 338.591339,118.119263 344.145660,115.669418 
	C349.690796,113.223656 355.006195,110.262154 360.501099,107.695427 
	C363.419312,106.332314 366.444794,105.128357 369.526489,104.199753 
	C376.862366,101.989235 384.249908,99.946938 391.636475,97.908699 
	C398.788361,95.935234 406.007996,94.195816 413.115204,92.076363 
	C417.599579,90.739082 421.837646,88.505852 426.363434,87.399902 
	C429.847290,86.548553 433.657074,87.130859 437.235046,86.545166 
	C446.667084,85.001198 456.013458,82.900696 465.468964,81.545189 
	C471.701141,80.651787 478.059601,80.588333 484.367920,80.287491 
	C500.463501,79.519882 516.563049,78.281380 532.660217,78.293449 
	C543.734619,78.301758 554.859070,79.704163 565.866394,81.187164 
	C576.275269,82.589531 586.591675,84.758278 596.889893,86.876060 
	C604.849182,88.512848 612.839539,90.197235 620.590576,92.590599 
	C627.667358,94.775757 634.393738,98.071030 641.362854,100.637062 
	C647.666016,102.957893 654.176392,104.729279 660.429688,107.167961 
	C665.091919,108.986160 669.505005,111.451500 674.001404,113.684425 
	C679.318359,116.324852 684.625305,118.986862 689.899475,121.711456 
	C694.471375,124.073280 698.933289,126.654327 703.553101,128.915054 
	C707.127380,130.664124 707.419617,133.581512 706.890259,136.870605 
	C696.419556,201.936096 675.635498,262.759827 633.276611,314.590820 
	C607.510864,346.118225 576.380737,371.205353 539.777039,388.930603 
	C521.447205,397.806793 502.412659,405.517365 483.115295,412.032593 
	C459.195740,420.108429 434.509796,425.606201 409.267822,428.132935 
	C397.694092,429.291473 386.149536,430.740051 374.582703,431.971619 
	C372.898499,432.150940 371.163361,431.851959 369.451813,431.774323 
	C369.412567,431.367523 369.373322,430.960754 369.334106,430.553955 
	C373.146912,429.305847 376.890869,427.755402 380.785889,426.868408 
	C390.985382,424.545715 401.306671,422.741486 411.465149,420.262329 
	C416.146393,419.119873 420.503052,416.707794 425.112732,415.193695 
	C429.232788,413.840393 433.630280,413.277405 437.668976,411.743439 
	C443.801178,409.414398 449.725220,406.538544 455.744995,403.911835 
	C458.712433,402.617035 461.727722,401.427948 464.666229,400.071686 
	C470.876740,397.205109 477.213501,394.556702 483.201233,391.276367 
	C491.719482,386.609650 500.243835,381.858032 508.270111,376.412445 
	C519.730286,368.637115 531.374817,360.927917 541.787537,351.865662 
	C555.251221,340.148193 568.562256,327.966156 580.130249,314.437531 
	C592.810425,299.608307 603.910217,283.338806 614.790344,267.088745 
	C622.862122,255.033127 630.117188,242.321503 636.580505,229.327301 
	C643.745728,214.922012 649.692505,199.903671 655.980652,185.072067 
	C659.138367,177.624084 661.879517,169.999344 664.801819,162.451752 
	C665.401978,160.901718 666.309631,159.376740 666.486694,157.775131 
	C666.954590,153.540878 666.773865,150.094437 661.430664,148.139893 
	C628.434631,136.069992 594.978027,125.620476 560.166321,120.437889 
	C529.858276,115.925797 499.432739,115.284851 469.357025,122.520226 
	C437.268372,130.239853 409.377960,145.734512 385.605347,168.691727 
	C361.769135,191.710342 343.038513,218.565750 326.888824,247.257355 
	C307.458160,281.777924 288.861725,316.769592 269.304779,351.217041 
	C254.393066,377.482361 237.210648,402.233429 215.587326,423.580963 
	C210.853958,428.253967 205.916016,432.754517 200.768753,436.963226 
	C196.065781,440.808655 193.675293,445.334259 195.019180,451.354858 
	C196.296463,457.077057 200.199020,460.073425 205.716614,461.818237 
	C213.090576,464.150085 220.201904,467.307312 227.561935,469.690186 
	C232.338730,471.236694 237.402145,471.874176 242.256210,473.212463 
	C247.065201,474.538330 251.776855,476.219757 256.520477,477.777863 
	C257.303009,478.034882 257.999512,478.646118 258.788330,478.777161 
	C265.559387,479.901855 272.386627,480.734314 279.110291,482.085938 
	C286.600494,483.591614 294.000153,485.548157 301.437958,487.313843 
	C302.082977,487.467010 302.708771,487.719696 303.359863,487.826263 
	C309.046112,488.757080 314.707520,490.176270 320.429626,490.495605 
	C353.788330,492.357422 387.113159,495.965393 420.592926,493.071747 
	C428.505890,492.387848 436.473877,491.969879 444.293671,490.682800 
	C452.186096,489.383728 459.923126,487.145081 467.735779,485.350891 
	C468.699249,485.129639 469.715118,484.974365 470.696411,485.018250 
	C479.527649,485.413300 487.659576,482.756989 495.677063,479.479309 
	C496.707611,479.057953 498.012848,479.357208 499.110016,479.041656 
	C504.199066,477.578125 509.265137,476.033478 514.326050,474.474457 
	C515.416504,474.138519 516.431091,473.560760 517.515930,473.200897 
	C522.986816,471.385834 528.500610,469.695068 533.939087,467.788879 
	C539.408081,465.872040 544.869873,463.906616 550.219971,461.685699 
	C557.664307,458.595459 565.088806,455.429138 572.352478,451.942566 
	C576.788940,449.813110 580.982422,447.140015 585.153259,444.502686 
	C593.606628,439.157440 602.130859,433.901276 610.337646,428.193909 
	C627.360413,416.355347 642.474243,402.175568 655.692688,386.386902 
	C669.884766,369.435181 683.174072,351.597321 691.861450,330.911774 
	C697.660950,317.102539 704.053467,303.510376 709.137390,289.444031 
	C712.467102,280.231384 714.025879,270.366119 716.206726,260.754333 
	C718.249512,251.751556 720.210022,242.724884 721.933655,233.656799 
	C723.107056,227.483704 724.339905,221.245407 724.625977,214.994156 
	C725.560913,194.563171 726.077942,174.113022 726.742737,153.669815 
	C726.795776,152.038895 726.749756,150.404739 726.749756,147.411636 
	C729.684937,148.351013 732.274719,148.488541 733.908997,149.808792 
	C752.064697,164.476120 768.749939,180.752319 783.308899,198.946121 
	C801.660583,221.879578 815.958008,247.306076 825.231140,275.263336 
	C829.770691,288.949341 833.100891,303.034119 837.074036,316.911011 
	C841.794556,333.398193 851.742676,346.130676 866.055908,355.235535 
	C872.916199,359.599457 880.442505,362.860779 888.428040,365.051849 
	C896.963806,367.393860 905.307678,370.432739 913.750366,373.119995 
	C914.846924,373.468994 916.027283,373.588043 917.179443,373.723969 
	C930.625732,375.310059 942.761902,380.340271 954.561768,386.861755 
	C975.616943,398.498505 984.784363,418.162964 991.064209,439.699615 
	C1002.572510,479.167297 1004.093567,519.630676 1002.290955,560.383972 
	C1002.119934,564.248779 1000.199097,568.832764 1005.028381,571.537476 
	C1006.139771,572.159912 1007.396118,572.615173 1008.642456,572.891479 
	C1035.287964,578.797913 1052.343140,598.348389 1037.757690,628.060242 
	C1031.653198,640.496033 1022.723206,650.894409 1009.700562,656.804688 
	C997.171753,662.490784 983.947937,663.911194 970.734924,660.277588 
	C961.728149,657.800720 953.227600,653.528931 944.359619,650.468323 
	C942.229309,649.733093 939.520325,650.477600 937.109009,650.787476 
	C926.585693,652.139465 916.095398,654.424072 905.550354,654.693054 
	C898.637085,654.869385 891.580811,652.451965 884.715942,650.697693 
	C877.386108,648.824646 875.588135,642.420654 873.822021,636.113098 
	C871.119263,626.459900 869.205933,616.449036 865.288391,607.305115 
	C859.622253,594.079651 850.956543,582.579651 840.415466,572.648804 
	C839.459412,571.747986 838.079163,571.297424 837.133301,570.770142 
	C842.500183,580.783569 848.687256,590.279053 852.918579,600.578064 
	C870.792236,644.082092 860.596802,691.328308 827.992004,723.023865 
	C804.899536,745.472412 776.919373,755.570557 744.616333,752.203247 
	C712.835693,748.890320 688.164124,733.608459 669.928040,707.423096 
	C663.239380,697.818970 657.963379,687.595093 654.534058,676.505554 
	C652.950439,671.384583 652.590088,665.859741 651.924072,660.487122 
	C651.134521,654.118652 649.612183,647.623352 650.198730,641.350464 
	C651.205811,630.578430 653.812744,619.966492 655.354004,609.230835 
	C656.833130,598.926941 661.028015,589.827576 666.505493,581.171021 
	C666.801331,580.703430 666.749756,580.015930 666.859924,579.430847 
	C666.428772,579.175049 665.997620,578.919312 665.566467,578.663513 
	C661.653564,584.284302 657.421509,589.712646 653.892883,595.565186 
	C646.029175,608.607727 640.334961,622.596985 636.605103,637.393250 
	C634.648193,645.156311 627.854370,647.432617 621.433411,649.644104 
	C607.154968,654.561707 592.214050,655.621277 577.286743,656.960876 
	C550.773315,659.340088 524.309814,657.722351 497.950348,655.604187 
	C478.984955,654.080078 460.039520,651.301331 441.829559,644.862427 
	C433.612030,641.956726 430.170593,636.500916 427.916748,628.531372 
	C425.034393,618.339355 421.115021,608.368896 416.834015,598.659424 
	C408.494568,579.745178 392.837250,567.213135 377.098663,554.894348 
	C375.266846,553.460571 372.980774,552.607117 370.499359,552.041199 
	C386.696259,563.626465 397.042694,579.732178 405.267181,597.071228 
	C428.612885,646.289062 409.625183,709.378784 362.604858,736.948730 
	C324.513947,759.282959 286.371552,758.146423 249.387299,733.329956 
	C234.559204,723.380310 223.657394,709.789185 215.551270,694.250549 
	C208.432022,680.603638 204.893356,665.790771 203.770050,650.157715 
	C202.319672,629.972412 207.341690,611.293091 215.474869,593.539490 
	C220.983917,581.514038 229.203781,570.730408 236.490601,558.939270 
	C235.216263,559.590698 233.814072,560.059692 232.705750,560.911194 
	C215.356323,574.240173 204.341080,592.024841 197.157944,612.337158 
	C194.839737,618.892517 193.419388,625.768799 191.655914,632.515869 
	C190.182632,638.152710 187.641556,640.550537 181.674042,640.071045 
	C168.142410,638.983826 154.294479,640.256714 140.860031,634.400757 
	C136.233398,645.566895 128.637848,653.238037 117.084290,657.145203 
z"/>
<path fill="#6AB691" opacity="1.000000" stroke="none" 
	d="
M495.039093,717.995728 
	C499.191925,720.758362 504.013489,721.342041 508.633820,722.741394 
	C516.138977,725.014526 522.695129,729.980103 527.965942,736.956787 
	C528.446289,737.743835 528.721130,737.910950 529.060120,737.972595 
	C529.060120,737.972595 528.999756,737.993835 529.077515,738.203369 
	C529.307312,738.720032 529.542847,738.936035 529.861938,739.060913 
	C529.861938,739.060913 529.947693,739.058289 529.996399,739.453918 
	C542.652893,766.149170 525.522522,791.496643 499.931885,797.162354 
	C488.732910,799.641785 477.973907,798.246155 467.109406,795.908508 
	C467.109406,795.908508 467.023926,795.978882 466.958435,795.731812 
	C466.722748,795.242371 466.499878,795.066956 466.224335,794.958496 
	C460.236542,791.377625 457.667297,786.701416 459.507324,780.473145 
	C460.193024,778.152161 463.008392,775.253296 465.244019,774.863770 
	C469.165314,774.180298 473.713837,774.353271 477.418976,775.730103 
	C485.713806,778.812439 493.468292,779.230225 501.672241,775.415649 
	C511.072906,771.044678 514.018799,767.562439 512.858215,757.545227 
	C512.444458,753.974426 509.450775,750.702637 507.179504,746.814575 
	C499.166382,738.537720 490.764465,738.141479 481.849152,744.442871 
	C478.635254,746.714478 474.489319,747.667419 470.768738,749.222168 
	C468.980011,746.079590 465.818665,742.996521 465.679626,739.782654 
	C465.359711,732.389771 466.552429,724.936096 467.048859,717.501587 
	C467.370056,712.691650 467.383606,707.856934 467.829407,703.060669 
	C468.334991,697.621887 468.705566,692.092041 470.080322,686.849731 
	C470.660309,684.638062 473.350159,682.069397 475.610229,681.367554 
	C484.982056,678.457275 494.684204,677.626038 504.524292,678.136780 
	C509.598206,678.400208 514.725708,677.809937 519.777893,678.225891 
	C521.782898,678.390869 523.649536,680.236816 525.786621,682.016846 
	C526.477478,690.760803 522.376343,697.116089 512.916443,697.153198 
	C506.843445,697.177002 500.776489,698.399902 494.704163,699.060852 
	C491.259613,699.435730 489.237457,701.297363 489.118378,704.766418 
	C488.973267,708.993164 489.083801,713.228638 489.083801,717.995728 
	C490.802551,717.995728 492.920807,717.995728 495.039093,717.995728 
z"/>
<path fill="#69B690" opacity="1.000000" stroke="none" 
	d="
M596.990845,783.037903 
	C592.036377,781.281006 591.309204,776.597107 590.050354,772.502136 
	C588.916748,768.814636 588.955627,764.733887 587.603577,761.156921 
	C586.598083,758.497070 584.195679,756.365356 581.986694,753.498047 
	C579.701843,750.786316 577.845825,748.574951 575.280884,745.518860 
	C574.454224,751.264404 573.699402,755.763550 573.185608,760.290039 
	C572.664795,764.877441 572.383728,769.491943 571.995178,774.094421 
	C570.917114,786.861633 567.747192,790.673462 557.905762,791.040344 
	C550.007324,787.191345 550.252502,780.133606 551.062073,773.061096 
	C552.114624,763.865845 554.005737,754.741455 554.612061,745.525757 
	C555.710266,728.832947 556.123962,712.094971 556.827087,695.376038 
	C556.896790,693.718689 556.783264,692.020142 557.109497,690.412720 
	C558.859802,681.788818 566.859741,681.018799 573.888977,685.350769 
	C574.861572,685.950256 575.647156,686.853333 576.737061,688.346558 
	C576.954773,698.995178 576.954773,708.913208 576.954773,718.869507 
	C581.112061,717.369507 584.153503,716.330994 587.131104,715.133606 
	C587.573547,714.955750 587.714600,714.028442 587.995056,713.447815 
	C591.375305,707.472717 594.773560,701.507690 598.130371,695.519470 
	C600.997437,690.404785 609.473999,689.869873 614.917297,694.501160 
	C615.545044,695.035339 616.114319,695.638367 616.972656,696.753601 
	C617.519714,697.522034 617.804871,697.746277 618.089966,697.970520 
	C618.089966,697.970520 618.013428,697.958923 618.002197,698.337097 
	C616.603516,702.381836 615.836121,706.464478 613.708801,709.634460 
	C608.029785,718.096985 601.766418,726.167297 595.554321,734.640381 
	C596.834961,736.445618 598.452148,738.725220 600.182373,741.307373 
	C601.223999,742.764404 602.152649,743.919006 603.081299,745.073547 
	C603.340393,745.847351 603.599548,746.621155 604.015381,747.930603 
	C604.444275,748.651794 604.716492,748.837341 604.988708,749.022888 
	C604.988708,749.022888 604.995972,749.002441 605.000732,749.309082 
	C605.339355,750.082397 605.673218,750.549011 606.007080,751.015686 
	C606.007080,751.015686 605.993652,751.005493 605.990967,751.391357 
	C607.592834,758.136719 609.346863,764.463074 610.760132,770.864685 
	C612.205078,777.409973 608.253296,782.692627 601.941345,783.020264 
	C600.295349,783.105713 598.641235,783.036255 596.990845,783.037903 
z"/>
<path fill="#9C9E9D" opacity="1.000000" stroke="none" 
	d="
M467.196289,796.241455 
	C477.973907,798.246155 488.732910,799.641785 499.931885,797.162354 
	C525.522522,791.496643 542.652893,766.149170 529.980347,739.493652 
	C535.791443,741.960754 537.326782,747.886047 539.053772,753.180725 
	C545.100464,771.719116 534.248901,792.864929 516.006348,799.935364 
	C503.666473,804.718079 491.136719,805.493774 478.468903,802.600281 
	C474.489166,801.691284 470.997986,798.643311 467.196289,796.241455 
z"/>
<path fill="#9B9D9C" opacity="1.000000" stroke="none" 
	d="
M495.051575,717.560669 
	C492.920807,717.995728 490.802551,717.995728 489.083801,717.995728 
	C489.083801,713.228638 488.973267,708.993164 489.118378,704.766418 
	C489.237457,701.297363 491.259613,699.435730 494.704163,699.060852 
	C500.776489,698.399902 506.843445,697.177002 512.916443,697.153198 
	C522.376343,697.116089 526.477478,690.760803 526.009277,682.279175 
	C531.072266,684.422058 533.101685,688.278564 532.108276,693.403015 
	C531.029907,698.965698 527.174133,702.473145 521.615295,702.994690 
	C516.186279,703.503967 510.720917,703.793213 505.341370,704.628723 
	C494.958801,706.241333 494.921509,706.443115 495.051575,717.560669 
z"/>
<path fill="#9D9E9E" opacity="1.000000" stroke="none" 
	d="
M558.097107,791.325500 
	C567.747192,790.673462 570.917114,786.861633 571.995178,774.094421 
	C572.383728,769.491943 572.664795,764.877441 573.185608,760.290039 
	C573.699402,755.763550 574.454224,751.264404 575.280884,745.518860 
	C577.845825,748.574951 579.701843,750.786316 581.722168,753.231262 
	C580.904541,757.589111 579.503479,761.666626 579.037598,765.848389 
	C578.320923,772.281250 578.612610,778.835510 577.739502,785.237793 
	C577.323364,788.289551 575.910400,791.869873 573.725464,793.882751 
	C568.597656,798.606934 564.408875,797.677673 558.097107,791.325500 
z"/>
<path fill="#9B9D9C" opacity="1.000000" stroke="none" 
	d="
M600.069336,741.004883 
	C598.452148,738.725220 596.834961,736.445618 595.554321,734.640381 
	C601.766418,726.167297 608.029785,718.096985 613.708801,709.634460 
	C615.836121,706.464478 616.603516,702.381836 618.028442,698.308655 
	C624.046875,701.294067 626.161316,706.111084 622.701416,711.332214 
	C617.100769,719.783752 610.702698,727.706848 603.995483,735.953064 
	C602.857178,737.016968 602.364929,737.980896 601.872559,738.944763 
	C601.833557,739.402344 601.794617,739.859985 601.436890,740.656982 
	C600.768494,740.999207 600.418884,741.002075 600.069336,741.004883 
z"/>
<path fill="#9D9F9E" opacity="1.000000" stroke="none" 
	d="
M597.091431,783.366455 
	C598.641235,783.036255 600.295349,783.105713 601.941345,783.020264 
	C608.253296,782.692627 612.205078,777.409973 610.760132,770.864685 
	C609.346863,764.463074 607.592834,758.136719 605.988525,751.383423 
	C607.929871,753.082825 610.762512,754.859924 611.639221,757.330872 
	C613.949585,763.842590 615.409424,770.656067 617.209778,777.348877 
	C618.344604,781.567688 617.004761,785.879150 613.522766,787.259888 
	C610.164001,788.591858 605.716309,787.630188 601.850342,787.020691 
	C600.164612,786.755005 598.736877,784.853577 597.091431,783.366455 
z"/>
<path fill="#9C9E9D" opacity="1.000000" stroke="none" 
	d="
M470.955292,749.507446 
	C474.489319,747.667419 478.635254,746.714478 481.849152,744.442871 
	C490.764465,738.141479 499.166382,738.537720 506.885498,746.632812 
	C499.343140,744.656921 492.605103,746.589294 486.659485,751.715698 
	C482.289551,755.483459 474.092834,755.679504 470.955292,749.507446 
z"/>
<path fill="#9CA09E" opacity="1.000000" stroke="none" 
	d="
M587.555908,713.347290 
	C587.714600,714.028442 587.573547,714.955750 587.131104,715.133606 
	C584.153503,716.330994 581.112061,717.369507 576.954773,718.869507 
	C576.954773,708.913208 576.954773,698.995178 576.940552,688.622070 
	C582.319702,690.046326 583.601624,694.552368 583.865417,699.485352 
	C584.049377,702.924988 583.818420,706.395081 583.630005,709.843750 
	C583.488586,712.431030 584.632690,713.466431 587.555908,713.347290 
z"/>
<path fill="#9D9F9E" opacity="1.000000" stroke="none" 
	d="
M600.182373,741.307373 
	C600.418884,741.002075 600.768494,740.999207 601.378967,740.996704 
	C602.249390,742.213257 602.858826,743.429565 603.274780,744.859680 
	C602.152649,743.919006 601.223999,742.764404 600.182373,741.307373 
z"/>
<path fill="#9D9F9E" opacity="1.000000" stroke="none" 
	d="
M602.162109,738.813721 
	C602.364929,737.980896 602.857178,737.016968 603.667114,736.023987 
	C603.473633,736.890869 602.962585,737.786804 602.162109,738.813721 
z"/>
<path fill="#9D9F9E" opacity="1.000000" stroke="none" 
	d="
M606.013184,750.707336 
	C605.673218,750.549011 605.339355,750.082397 604.990234,749.312256 
	C605.323059,749.472168 605.671204,749.935547 606.013184,750.707336 
z"/>
<path fill="#9C9E9D" opacity="1.000000" stroke="none" 
	d="
M466.253235,795.194946 
	C466.499878,795.066956 466.722748,795.242371 466.980896,795.681152 
	C466.707184,795.904114 466.444946,795.755371 466.253235,795.194946 
z"/>
<path fill="#9D9F9E" opacity="1.000000" stroke="none" 
	d="
M604.910828,748.780640 
	C604.716492,748.837341 604.444275,748.651794 604.088379,748.228271 
	C604.280701,748.172974 604.556824,748.355652 604.910828,748.780640 
z"/>
<path fill="#9C9E9D" opacity="1.000000" stroke="none" 
	d="
M529.830688,738.809814 
	C529.542847,738.936035 529.307312,738.720032 529.093567,738.175659 
	C529.287720,738.145264 529.543579,738.351990 529.830688,738.809814 
z"/>
<path fill="#9C9E9D" opacity="1.000000" stroke="none" 
	d="
M528.989624,737.724121 
	C528.721130,737.910950 528.446289,737.743835 528.133057,737.248901 
	C528.326721,737.176270 528.622925,737.325928 528.989624,737.724121 
z"/>
<path fill="#9B9D9C" opacity="1.000000" stroke="none" 
	d="
M618.042358,697.692871 
	C617.804871,697.746277 617.519714,697.522034 617.174927,697.023621 
	C617.408386,696.971375 617.701538,697.193359 618.042358,697.692871 
z"/>
</svg>